<svg height="512pt" viewBox="0 0 512.00075 512" width="512pt" xmlns="http://www.w3.org/2000/svg"><path d="m106.066406 469.574219-31.820312-60.105469-42.425782 70.710938 31.820313 31.820312zm0 0" fill="#242424"/><path d="m42.425781 405.9375-42.425781 42.425781 31.820312 31.816407 56.566407-56.566407zm0 0" fill="#434343"/><path d="m116.671875 352.902344-42.425781 84.851562 31.820312 31.820313 42.425782-42.425781zm0 0" fill="#434343"/><path d="m137.886719 374.113281-53.035157-10.605469-42.425781 42.429688 31.820313 31.816406zm0 0" fill="#636363"/><path d="m148.492188 427.148438 83.710937-83.710938-53.035156-53.03125-62.496094 104.921875zm0 0" fill="#242424"/><path d="m168.5625 279.796875 31.820312 31.816406-83.710937 83.710938-31.816406-31.820313zm0 0" fill="#434343"/><path d="m454.59375 57.40625-207.890625 69.296875-69.296875 207.890625c76.542969 76.542969 200.644531 76.542969 277.1875 0s76.542969-200.644531 0-277.1875zm0 0" fill="#434343"/><path d="m177.40625 57.40625c-76.542969 76.542969-76.542969 200.644531 0 277.1875l277.1875-277.1875c-76.542969-76.542969-200.644531-76.542969-277.1875 0zm0 0" fill="#636363"/><path d="m412.164062 99.832031-144.25 48.085938-48.082031 144.25c53.113281 53.109375 139.222657 53.109375 192.332031 0 53.113282-53.113281 53.113282-139.222657 0-192.335938zm0 0" fill="#b2f5ff"/><path d="m219.832031 99.832031c-53.109375 53.113281-53.109375 139.222657 0 192.335938l192.332031-192.335938c-53.109374-53.109375-139.21875-53.109375-192.332031 0zm0 0" fill="#fff"/></svg>